<svg width="96" height="96" viewBox="0 0 48 48" fill="none" xmlns="http://www.w3.org/2000/svg">
  <defs>
    <linearGradient id="sg-primary" x1="10" y1="8" x2="38" y2="40" gradientUnits="userSpaceOnUse">
      <stop stop-color="#67F0D4" />
      <stop offset="1" stop-color="#5AB4FF" />
    </linearGradient>
  </defs>
  <path
    d="M24 4L6 12V22C6 33.52 13.68 44.24 24 47C34.32 44.24 42 33.52 42 22V12L24 4Z"
    fill="#0B111B"
    stroke="url(#sg-primary)"
    stroke-width="2"
    stroke-linecap="round"
    stroke-linejoin="round"
  />
  <path
    d="M24 14L16 18.5V27.5L24 32L32 27.5V18.5L24 14Z"
    fill="url(#sg-primary)"
    fill-opacity="0.2"
    stroke="url(#sg-primary)"
    stroke-width="1.5"
    stroke-linecap="round"
    stroke-linejoin="round"
  />
  <circle cx="24" cy="23" r="3" fill="url(#sg-primary)" />
  <path
    d="M24 20V14M20.5 21.5L16 18.5M27.5 21.5L32 18.5M27.5 24.5L32 27.5M20.5 24.5L16 27.5M24 26V32"
    stroke="url(#sg-primary)"
    stroke-opacity="0.72"
    stroke-width="1"
    stroke-linecap="round"
  />
</svg>
